<?xml version="1.0" encoding="UTF-8"?>
<svg xmlns="http://www.w3.org/2000/svg" xmlns:xlink="http://www.w3.org/1999/xlink" width="45px" height="45px" viewBox="0 0 45 45" version="1.1">
<g id="surface1">
<path style=" stroke:none;fill-rule:nonzero;fill:rgb(0%,0%,0%);fill-opacity:1;" d="M 22.363281 9.363281 C 22.023438 9.710938 22 9.789062 22 10.75 C 22 11.664062 21.976562 11.761719 21.789062 11.699219 C 20.625 11.363281 18.585938 10.875 18.539062 10.925781 C 18.5 10.960938 18.726562 11.511719 19.039062 12.148438 C 19.800781 13.699219 20.039062 14.3125 20.550781 15.9375 C 21.726562 19.613281 21.460938 21.449219 19.261719 24.925781 C 18.851562 25.601562 18.539062 26.199219 18.574219 26.261719 C 18.613281 26.324219 19.398438 26.375 20.324219 26.375 L 22 26.375 L 22 28.875 L 20.164062 28.875 C 18.625 28.875 18.226562 28.824219 17.8125 28.636719 C 16.914062 28.226562 16.375 27.449219 16.375 26.550781 L 16.375 26.125 L 9.460938 26.125 L 9.539062 27.148438 C 9.75 30.363281 12.25 33.136719 15.523438 33.800781 C 16.324219 33.960938 17.5625 34 22.851562 34 C 30.238281 34 29.914062 34.050781 31.210938 32.835938 C 31.875 32.210938 33.273438 30.351562 33.488281 29.8125 C 33.585938 29.539062 34.625 28.164062 34.949219 27.851562 C 35.148438 27.675781 35.75 27.289062 36.289062 27 L 37.25 26.476562 L 37.25 25.6875 C 37.25 25.25 37.199219 24.863281 37.136719 24.824219 C 37.050781 24.761719 35.289062 25.226562 32.375 26.085938 C 31.789062 26.25 31.039062 26.476562 30.699219 26.5625 C 30.210938 26.699219 29.886719 26.925781 29.199219 27.613281 C 28.039062 28.75 27.710938 28.875 25.925781 28.875 L 24.5 28.875 L 24.5 26.375 L 26.601562 26.375 L 27.5625 25.335938 C 29.238281 23.550781 30.25 21.699219 30.25 20.425781 C 30.25 19.289062 29.8125 18.125 28.773438 16.585938 C 28.175781 15.675781 24.988281 12.5 24.6875 12.5 C 24.539062 12.5 24.5 12.261719 24.5 11.175781 L 24.5 9.851562 L 24.074219 9.425781 C 23.511719 8.863281 22.886719 8.835938 22.363281 9.363281 Z M 22.363281 9.363281 "/>
<path style=" stroke:none;fill-rule:nonzero;fill:rgb(0%,0%,0%);fill-opacity:1;" d="M 16.976562 14.085938 C 16.648438 14.476562 11.210938 23.050781 11.148438 23.273438 C 11.101562 23.488281 11.3125 23.5 14.289062 23.5 L 17.476562 23.5 L 17.863281 22.789062 C 18.636719 21.375 18.875 20.601562 18.875 19.539062 C 18.875 18.574219 18.4375 16.398438 18.074219 15.574219 C 17.988281 15.363281 17.800781 14.914062 17.664062 14.574219 C 17.398438 13.875 17.25 13.773438 16.976562 14.085938 Z M 16.976562 14.085938 "/>
</g>
</svg>
